<svg version="1.1" xmlns="http://www.w3.org/2000/svg" xmlns:xlink="http://www.w3.org/1999/xlink" width="806.74189" height="236.4207" viewBox="-172.48165,-42.90403,806.74189,236.4207"><g fill="#000000" fill-rule="nonzero" stroke="none" stroke-width="1" stroke-linecap="butt" stroke-linejoin="miter" stroke-miterlimit="10" stroke-dasharray="" stroke-dashoffset="0" font-family="none" font-weight="none" font-size="none" text-anchor="none" style="mix-blend-mode: normal"><path d="M60.38902,-20.60468l-5.72191,-0.31788h-1.9073c-1.80134,5.51 -5.74841,10.62262 -11.84118,15.33791c-6.09277,4.71529 -12.31801,7.07292 -18.67569,7.07292c-3.49673,0 -5.24509,-1.3775 -5.24509,-4.13249c0,-3.92058 3.23182,-8.39743 9.69547,-13.4306c6.46365,-5.03317 14.19882,-7.9736 23.20554,-8.82128v-0.63577c0,-5.40403 -4.60932,-8.10605 -13.82796,-8.10605c-14.19882,0 -26.86121,8.37095 -37.98715,25.11285c-5.19211,7.9471 -10.06633,16.10612 -14.62267,24.47708c-14.19882,26.5963 -25.21881,44.98061 -33.05995,55.1529c3.49673,0 6.19874,0.05298 8.10605,0.15894l26.0665,0.79471c6.46365,0 10.25176,0.07947 11.36436,0.23841c1.11259,0.15894 1.66889,0.45033 1.66889,0.87418c0,3.07287 -2.54307,4.76826 -7.62922,5.08615c-13.9869,-0.42385 -28.87448,-0.74173 -44.66272,-0.95365c-17.48363,20.0267 -37.98715,30.04005 -61.51058,30.04005c-3.60269,0 -6.49013,-0.87418 -8.66234,-2.62254c-2.17221,-1.74836 -3.25831,-4.00005 -3.25831,-6.75504c0,-2.75499 1.29803,-5.56297 3.89408,-8.42393c2.59605,-2.86096 6.51662,-5.66894 11.76171,-8.42393c5.24509,-2.75499 12.68887,-5.05965 22.33136,-6.91398c9.64249,-1.85433 20.76844,-2.88745 33.37783,-3.09937c8.37095,-11.33786 17.64257,-26.75524 27.81486,-46.25214c3.70864,-7.31134 8.10605,-14.88758 13.19219,-22.72872c5.08615,-7.84114 10.03985,-14.43723 14.86108,-19.78829c4.82124,-5.35105 10.59614,-9.74844 17.32469,-13.19219c6.72854,-3.44375 13.90743,-5.16562 21.53665,-5.16562c10.49018,0 15.73526,3.44375 15.73526,10.33123v0.47683c2.75499,0 5.13912,0.21192 7.15239,0.63577c0.63577,0.21192 0.95365,0.92716 0.95365,2.14572c0,1.21856 -0.47683,1.82783 -1.43048,1.82783zM-121.44071,90.97265c-2.43711,2.22519 -3.65567,4.37091 -3.65567,6.43715c0,2.06625 1.00663,3.73514 3.0199,5.00668c2.01327,1.27154 4.82124,1.9073 8.42393,1.9073c19.4969,0 36.82158,-9.00672 51.97406,-27.02015c-30.41091,0.31788 -50.33166,4.87423 -59.76222,13.66902zM21.76609,-3.59788c0,1.69539 1.05962,2.54307 3.17884,2.54307c3.81461,0 8.26499,-2.11922 13.35113,-6.35768c5.08615,-4.23846 8.58287,-8.63585 10.49018,-13.19219c-7.73519,0.95365 -14.17234,3.31129 -19.31146,7.07292c-5.13912,3.76163 -7.70869,7.07292 -7.70869,9.93388zM30.03108,60.29683c-0.63577,0 -0.95365,-0.37086 -0.95365,-1.11259l0.47683,-1.11259c1.9073,-1.80134 2.86096,-3.33778 2.86096,-4.60932c0,-1.58942 -0.84769,-2.38413 -2.54307,-2.38413c-3.70864,0 -8.71532,2.56957 -15.02003,7.70869c-6.30471,5.13912 -9.45705,9.72196 -9.45705,13.74849c0,1.69539 1.11259,2.54307 3.33778,2.54307c2.22519,0 4.79476,-0.92716 7.70869,-2.78149c2.91393,-1.85433 5.40403,-3.70864 7.47028,-5.56297c2.06625,-1.85433 3.20534,-2.78149 3.41725,-2.78149c1.05962,0.10597 1.58942,0.63577 1.58942,1.58942c0,0.42385 -0.82121,1.80134 -2.4636,4.13249c-1.6424,2.33116 -2.4636,4.18547 -2.4636,5.56297c0,1.05962 0.87418,1.58942 2.62254,1.58942c1.74836,0 4.84773,-1.03312 9.29811,-3.09937c4.45038,-2.06625 8.37095,-4.15899 11.76171,-6.27821l5.08615,-3.17884c0.10597,0.21192 0.15894,0.63577 0.15894,1.27154c0,0.63577 -0.47683,1.16557 -1.43048,1.58942c-14.30479,9.74844 -24.26516,14.62267 -29.88111,14.62267c-2.75499,0 -4.13249,-1.3775 -4.13249,-4.13249c0,-1.16557 0.21192,-2.38413 0.63577,-3.65567c-0.74173,0.84769 -2.94043,2.14572 -6.5961,3.89408c-3.65567,1.74836 -6.91398,2.62254 -9.77494,2.62254c-2.86096,0 -4.29144,-1.32451 -4.29144,-3.97355c0,-6.25172 4.34441,-12.63589 13.03325,-19.15252c8.68884,-6.51662 16.00017,-9.77494 21.93401,-9.77494c3.49673,0 5.24509,1.48345 5.24509,4.45038c0,1.69539 -1.05962,3.49673 -3.17884,5.40403c-2.11922,1.9073 -3.60269,2.86096 -4.45038,2.86096zM54.03133,81.11824l37.35139,-0.15894c0.84769,0 1.27154,0.21192 1.27154,0.63577c0,1.80134 -0.68874,2.75499 -2.06625,2.86096c-10.59614,0.5298 -21.88103,0.79471 -33.85466,0.79471c-3.07287,0 -4.60932,-0.42385 -4.60932,-1.27154c0,-1.80134 0.63577,-2.75499 1.9073,-2.86096zM139.06534,27.79318c0,0 1.35101,-1.97617 4.05302,-5.92854c2.70202,-3.94176 6.30471,-10.09811 10.80806,-18.46907c4.50335,-8.37095 6.75504,-14.70214 6.75504,-18.99358c0,-4.29144 -1.69539,-7.60272 -5.08615,-9.93388c-3.39076,-2.33116 -8.00008,-3.49673 -13.82796,-3.49673c-5.82788,0 -12.66239,1.56293 -20.50353,4.68879c-7.84114,3.12587 -14.70214,6.94048 -20.583,11.44383c-5.88086,4.50335 -10.78156,9.19214 -14.70214,14.06637c-3.92058,4.87423 -5.88086,9.0597 -5.88086,12.55642c0,4.98018 4.02653,7.47028 12.0796,7.47028c8.05307,0 16.37103,-3.0199 24.9539,-9.0597c8.58287,-6.0398 16.10612,-13.51008 22.56977,-22.41083c0.5298,-0.84769 1.0861,-1.27154 1.66889,-1.27154c0.58279,0 0.87418,0.42385 0.87418,1.27154c0,2.54307 -2.75499,6.83451 -8.26499,12.87431c-5.51,6.0398 -12.50345,11.76171 -20.98035,17.16574c-8.4769,5.40403 -16.00017,8.10605 -22.56977,8.10605c-10.06633,0 -15.0995,-3.44375 -15.0995,-10.33123c0,-4.23846 1.98678,-9.16566 5.96033,-14.78161c3.97355,-5.61595 9.08619,-10.94051 15.33791,-15.97368c6.25172,-5.03317 13.72199,-9.29811 22.41083,-12.79484c8.68884,-3.49673 16.71541,-5.24509 24.07972,-5.24509c7.36431,0 13.27166,1.35101 17.72204,4.05302c4.45038,2.70202 6.67557,7.28484 6.67557,13.74849c0,4.6623 -3.49673,12.74186 -10.49018,24.23867c-6.99345,11.4968 -13.96041,22.91415 -20.90088,34.25202c-6.94048,11.33786 -10.41071,19.31146 -10.41071,23.92078c0,4.60932 1.96028,6.91398 5.88086,6.91398c5.40403,0 12.50345,-3.65567 21.29824,-10.967c8.79479,-7.31134 17.0068,-15.57632 24.63602,-24.79496c7.62922,-9.21864 14.27829,-17.90748 19.94723,-26.0665c5.66894,-8.15902 8.5034,-13.13922 8.5034,-14.94055c0,-0.21192 -0.21192,-0.34438 -0.63577,-0.39736c-0.42385,-0.05298 -1.11259,0.31788 -2.06625,1.11259c-0.95365,0.79471 -1.98678,1.74836 -3.09937,2.86096c-1.11259,1.11259 -1.88081,1.85433 -2.30466,2.22519c-0.42385,0.37086 -1.00663,0.5563 -1.74836,0.5563c-1.9073,0 -2.86096,-0.68874 -2.86096,-2.06625c0,-0.84769 1.00663,-2.11922 3.0199,-3.81461c2.01327,-1.69539 4.63582,-4.3974 7.86763,-8.10605c3.23182,-3.70864 5.80139,-6.67557 7.70869,-8.90076c1.9073,-2.22519 3.15235,-3.33778 3.73514,-3.33778c0.58279,0 1.05962,0.15894 1.43048,0.47683c0.37086,0.31788 0.5563,0.87418 0.5563,1.66889c0,0.79471 -1.00663,3.47023 -3.0199,8.02657c-6.67557,15.15247 -16.26507,30.67582 -28.76851,46.57003c-9.32461,11.76171 -19.52338,22.03997 -30.59635,30.83476c-11.07297,8.79479 -20.68896,13.19219 -28.84799,13.19219c-3.49673,0 -5.85436,-0.79471 -7.07292,-2.38413c-1.21856,-1.58942 -1.82783,-4.26494 -1.82783,-8.02657c0,-3.76163 2.25168,-9.69547 6.75504,-17.80151c4.50335,-8.10605 9.45705,-16.10612 14.86108,-24.00025zM207.41043,30.73361c1.58942,0 2.38413,0.79471 2.38413,2.38413c0,1.58942 -0.74173,3.20534 -2.22519,4.84773c-1.48345,1.6424 -3.12587,2.4636 -4.9272,2.4636c-1.48345,0 -2.22519,-1.03312 -2.22519,-3.09937c0,-2.06625 0.84769,-3.68216 2.54307,-4.84773c1.69539,-1.16557 3.17884,-1.74836 4.45038,-1.74836zM192.46987,51.71396c0.5298,-0.84769 1.27154,-1.27154 2.22519,-1.27154c0.95365,0 1.9073,0.47683 2.86096,1.43048c0,0.42385 -0.68874,1.3775 -2.06625,2.86096c-1.3775,1.48345 -3.70864,4.79476 -6.99345,9.93388c-3.28481,5.13912 -4.9272,8.55638 -4.9272,10.25176c0,1.05962 0.79471,1.69539 2.38413,1.9073c2.11922,0 5.40403,-1.03312 9.85441,-3.09937c4.45038,-2.06625 8.37095,-4.15899 11.76171,-6.27821l5.08615,-3.17884c0.10597,0.21192 0.15894,0.63577 0.15894,1.27154c0,0.63577 -0.47683,1.16557 -1.43048,1.58942c-14.30479,9.74844 -24.26516,14.62267 -29.88111,14.62267c-2.75499,0 -4.13249,-1.3775 -4.13249,-4.13249c0,-2.75499 1.50995,-6.5961 4.52985,-11.5233c3.0199,-4.9272 6.54312,-9.72196 10.56965,-14.38426zM229.18549,74.76056c5.08615,-2.11922 10.54315,-4.98018 16.37103,-8.58287l3.0199,-1.9073c0.10597,0.21192 0.15894,0.63577 0.15894,1.27154c0,0.63577 -0.47683,1.16557 -1.43048,1.58942c-5.61595,3.81461 -11.23191,7.15239 -16.84786,10.01335c-5.61595,2.86096 -10.80806,4.29144 -15.57632,4.29144c-6.0398,0 -9.0597,-2.17221 -9.0597,-6.51662c0,-5.19211 3.62917,-11.04647 10.88753,-17.5631c7.25836,-6.51662 14.43723,-9.77494 21.53665,-9.77494c2.96692,0 4.45038,1.27154 4.45038,3.81461c0,1.48345 -1.32451,3.33778 -3.97355,5.56297c-3.70864,3.07287 -6.0398,4.60932 -6.99345,4.60932c-0.95365,0 -1.43048,-0.42385 -1.43048,-1.27154c0,-0.31788 0.21192,-0.63577 0.63577,-0.95365c1.05962,-0.63577 2.25168,-1.61592 3.5762,-2.94043c1.32451,-1.32451 1.98678,-2.4636 1.98678,-3.41725c0,-1.48345 -0.68874,-2.22519 -2.06625,-2.22519c-2.96692,0 -7.31134,2.67552 -13.03325,8.02657c-5.72191,5.35105 -8.58287,9.66897 -8.58287,12.95378c0,3.70864 2.01327,5.56297 6.0398,5.56297c2.64904,0 5.56297,-0.63577 8.74181,-1.9073zM247.46383,26.76006c7.20537,0 14.30479,-0.05298 21.29824,-0.15894c11.33786,-14.5167 19.07305,-21.77506 23.20554,-21.77506c1.48345,0 2.22519,0.79471 2.22519,2.38413c0,5.08615 -3.70864,11.44383 -11.12594,19.07305l12.0796,-0.15894c8.05307,-0.31788 12.98027,-0.47683 14.78161,-0.47683c1.80134,0 2.70202,0.21192 2.70202,0.63577c0,2.01327 -1.3775,3.07287 -4.13249,3.17884l-29.88111,1.27154c-5.19211,4.87423 -11.60277,10.01335 -19.23199,15.41738c-8.05307,13.24517 -12.0796,22.25189 -12.0796,27.02015c0,2.43711 1.56293,3.65567 4.68879,3.65567c3.12587,0 8.07955,-1.69539 14.86108,-5.08615l12.87431,-7.47028c0.10597,0.21192 0.15894,0.63577 0.15894,1.27154c0,0.63577 -0.47683,1.16557 -1.43048,1.58942c-3.39076,2.33116 -7.09942,4.6623 -11.12594,6.99345c-8.58287,4.34441 -15.15247,6.51662 -19.70882,6.51662c-2.11922,0 -3.76163,-0.42385 -4.9272,-1.27154c-1.16557,-0.84769 -1.80134,-1.69539 -1.9073,-2.54307l-0.31788,-1.27154c0,-3.60269 2.43711,-9.66897 7.31134,-18.19887c4.87423,-8.5299 10.64912,-17.24521 17.32469,-26.14597c-5.08615,0.21192 -9.90738,0.31788 -14.46373,0.31788c-4.55634,0 -6.83451,-0.5298 -6.83451,-1.58942c0,-2.01327 1.21856,-3.07287 3.65567,-3.17884zM289.26559,10.54797c0,-0.5298 -0.21192,-0.79471 -0.63577,-0.79471c-2.43711,0 -7.84114,5.56297 -16.21209,16.68892h7.9471c5.93383,-6.46365 8.90076,-11.76171 8.90076,-15.89421zM275.91446,30.89255c-3.39076,0 -5.66894,0.05298 -6.83451,0.15894c-0.95365,1.3775 -2.27816,3.39076 -3.97355,6.0398c-1.69539,2.64904 -2.86096,4.45038 -3.49673,5.40403c5.51,-4.02653 10.27826,-7.89413 14.30479,-11.60277zM310.56383,68.08499c-3.28481,2.01327 -7.09942,3.0199 -11.44383,3.0199h-1.9073c-2.86096,3.28481 -5.90735,5.96033 -9.13917,8.02657c-3.23182,2.06625 -6.0133,3.09937 -8.34446,3.09937c-3.28481,0 -4.9272,-2.11922 -4.9272,-6.35768c0,-4.23846 2.27816,-9.16566 6.83451,-14.78161c-0.42385,-1.16557 -0.63577,-2.59605 -0.63577,-4.29144c0,-3.70864 1.61592,-6.91398 4.84773,-9.616c3.23182,-2.70202 6.38418,-4.05302 9.45705,-4.05302c6.46365,0 9.69547,3.49673 9.69547,10.49018c0,4.6623 -2.01327,9.74844 -6.0398,15.25844h1.9073c3.39076,0 6.30471,-0.79471 8.74181,-2.38413c0.31788,-0.31788 0.74173,-0.47683 1.27154,-0.47683c0.5298,0 0.79471,0.18544 0.79471,0.5563c0,0.37086 -0.37086,0.87418 -1.11259,1.50995zM295.30539,49.80666c0.5298,-0.21192 0.95365,-0.31788 1.27154,-0.31788c0.31788,0 0.47683,0.23841 0.47683,0.71524c0,0.47683 -0.58279,1.13909 -1.74836,1.98678c-4.23846,3.28481 -7.4173,6.25172 -9.53652,8.90076c2.33116,3.70864 5.88086,6.14577 10.64912,7.31134c4.13249,-4.87423 6.19874,-9.43056 6.19874,-13.66902c0,-2.43711 -0.79471,-4.29144 -2.38413,-5.56297c-1.58942,-1.27154 -3.62917,-1.9073 -6.11927,-1.9073c-2.4901,0 -4.79476,0.71524 -6.91398,2.14572c-2.11922,1.43048 -3.17884,2.96692 -3.17884,4.60932c0,1.6424 0.15894,2.94043 0.47683,3.89408c3.28481,-3.39076 6.88748,-6.09277 10.80806,-8.10605zM283.54368,64.58827c-1.69539,2.86096 -2.54307,6.0398 -2.54307,9.53652c0,1.9073 0.84769,2.86096 2.54307,2.86096c2.86096,0 6.41066,-2.11922 10.64912,-6.35768c-4.76826,-0.84769 -8.31796,-2.86096 -10.64912,-6.0398zM336.94821,30.73361c1.58942,0 2.38413,0.79471 2.38413,2.38413c0,1.58942 -0.74173,3.20534 -2.22519,4.84773c-1.48345,1.6424 -3.12587,2.4636 -4.9272,2.4636c-1.48345,0 -2.22519,-1.03312 -2.22519,-3.09937c0,-2.06625 0.84769,-3.68216 2.54307,-4.84773c1.69539,-1.16557 3.17884,-1.74836 4.45038,-1.74836zM322.00766,51.71396c0.5298,-0.84769 1.27154,-1.27154 2.22519,-1.27154c0.95365,0 1.9073,0.47683 2.86096,1.43048c0,0.42385 -0.68874,1.3775 -2.06625,2.86096c-1.3775,1.48345 -3.70864,4.79476 -6.99345,9.93388c-3.28481,5.13912 -4.9272,8.55638 -4.9272,10.25176c0,1.05962 0.79471,1.69539 2.38413,1.9073c2.11922,0 5.40403,-1.03312 9.85441,-3.09937c4.45038,-2.06625 8.37095,-4.15899 11.76171,-6.27821l5.08615,-3.17884c0.10597,0.21192 0.15894,0.63577 0.15894,1.27154c0,0.63577 -0.47683,1.16557 -1.43048,1.58942c-14.30479,9.74844 -24.26516,14.62267 -29.88111,14.62267c-2.75499,0 -4.13249,-1.3775 -4.13249,-4.13249c0,-2.75499 1.50995,-6.5961 4.52985,-11.5233c3.0199,-4.9272 6.54312,-9.72196 10.56965,-14.38426zM338.69658,68.56182c-0.42385,0.21192 -0.82121,0.31788 -1.19207,0.31788c-0.37086,0 -0.5563,-0.21192 -0.5563,-0.63577c0,-0.42385 0.15894,-0.79471 0.47683,-1.11259c4.34441,-2.43711 9.11267,-6.41066 14.30479,-11.92066c-4.76826,-1.48345 -7.15239,-3.5762 -7.15239,-6.27821c0,-2.70202 1.80134,-5.72191 5.40403,-9.0597c3.60269,-3.33778 6.99345,-5.00668 10.17229,-5.00668c2.11922,0 3.17884,1.27154 3.17884,3.81461c0,3.92058 -1.96028,8.10605 -5.88086,12.55642c5.08615,0.84769 7.62922,2.06625 7.62922,3.65567c0,2.11922 -0.92716,3.73514 -2.78149,4.84773c-1.85433,1.11259 -4.00005,3.09937 -6.43715,5.96033c-2.43711,2.86096 -3.65567,5.72191 -3.65567,8.58287c0,0.63577 0.21192,1.21856 0.63577,1.74836c0.42385,0.5298 1.32451,0.79471 2.70202,0.79471c1.3775,0 4.29144,-1.03312 8.74181,-3.09937c4.45038,-2.06625 8.37095,-4.15899 11.76171,-6.27821l5.08615,-3.17884c0.10597,0.21192 0.15894,0.63577 0.15894,1.27154c0,0.63577 -0.47683,1.16557 -1.43048,1.58942c-14.30479,9.74844 -24.26516,14.62267 -29.88111,14.62267c-2.75499,0 -4.13249,-1.3775 -4.13249,-4.13249c0,-2.22519 0.76821,-4.55634 2.30466,-6.99345c1.53645,-2.43711 3.23182,-4.45038 5.08615,-6.0398c1.85433,-1.58942 3.5497,-3.09937 5.08615,-4.52985c1.53645,-1.43048 2.30466,-2.35764 2.30466,-2.78149c0,-0.42385 -0.66226,-0.68874 -1.98678,-0.79471c-1.32451,-0.10597 -3.04639,-0.37086 -5.16562,-0.79471c-5.82788,6.25172 -10.75509,10.54315 -14.78161,12.87431zM348.55098,46.46887c0,2.11922 2.33116,3.60269 6.99345,4.45038c2.75499,-3.39076 4.13249,-6.33119 4.13249,-8.82128c0,-2.4901 -0.79471,-3.73514 -2.38413,-3.73514c-1.58942,0 -3.44375,0.92716 -5.56297,2.78149c-2.11922,1.85433 -3.17884,3.62917 -3.17884,5.32456zM385.42554,63.79356c-6.35768,0 -9.53652,-1.3775 -9.53652,-4.13249c0,-3.28481 3.76163,-7.17889 11.28489,-11.68224c7.52325,-4.50335 14.30479,-6.75504 20.34458,-6.75504c3.07287,0 4.60932,0.95365 4.60932,2.86096c0,1.05962 -0.79471,2.22519 -2.38413,3.49673c-1.58942,1.27154 -3.12587,2.27816 -4.60932,3.0199c-1.48345,0.74173 -2.33116,1.11259 -2.54307,1.11259c-0.63577,0 -1.05962,-0.26491 -1.27154,-0.79471c-0.21192,-0.74173 0.34438,-1.50995 1.66889,-2.30466c1.32451,-0.79471 1.98678,-1.66889 1.98678,-2.62254c0,-0.95365 -1.19207,-1.43048 -3.5762,-1.43048c-2.38413,0 -6.11927,1.66889 -11.20542,5.00668c-5.08615,3.33778 -7.62922,6.06629 -7.62922,8.18552c0,1.58942 1.85433,2.38413 5.56297,2.38413c0.63577,0 1.80134,-0.05298 3.49673,-0.15894c1.69539,-0.10597 2.54307,0.10597 2.54307,0.63577c0,0.5298 -2.62254,2.43711 -7.86763,5.72191c-5.24509,3.28481 -7.86763,6.09277 -7.86763,8.42393c0,2.64904 1.72187,3.97355 5.16562,3.97355c3.44375,0 7.33783,-0.90068 11.68224,-2.70202c6.99345,-3.07287 13.35113,-6.35768 19.07305,-9.85441l3.0199,-1.9073c0.10597,0.21192 0.15894,0.63577 0.15894,1.27154c0,0.63577 -0.47683,1.16557 -1.43048,1.58942c-5.61595,3.81461 -11.76171,7.44378 -18.43728,10.88753c-6.67557,3.44375 -12.68887,5.16562 -18.03992,5.16562c-5.35105,0 -8.02657,-1.77486 -8.02657,-5.32456c0,-3.5497 4.60932,-8.23849 13.82796,-14.06637zM-172.48165,131.24317c0,-1.653 1.17617,-2.4901 3.52851,-2.51128h22.83998c3.13645,0 5.82257,0.85299 8.05836,2.55897c2.23579,1.69539 3.34308,4.30204 3.32189,7.81995c-0.04239,7.52325 -3.98945,11.28489 -11.84118,11.28489c-3.32718,-0.09537 -5.03846,-0.93776 -5.13383,-2.52718c0.07418,-1.76955 1.06491,-2.66493 2.97222,-2.68612c0.99604,0 1.77486,0.39736 2.33645,1.19207c0.56159,0.79471 0.92186,1.26094 1.08081,1.39869c0.34967,0.25431 0.76821,0.38146 1.25564,0.38146c2.83977,0 4.25965,-2.82917 4.25965,-8.48751c0,-3.09408 -1.0702,-5.47821 -3.21063,-7.15239c-1.34571,-1.04902 -2.79738,-1.57353 -4.35501,-1.57353h-6.70736v34.07718c0,1.51524 0.12715,2.42121 0.38146,2.71791c0.25431,0.2861 0.75232,0.49801 1.49406,0.63577l2.38413,0.49272v1.43048h-13.58955v-1.3669l2.01856,-0.41325c1.23975,-0.25431 1.98148,-0.73113 2.22519,-1.43048c0.24371,-0.69935 0.36557,-2.03975 0.36557,-4.02123v-26.11418c-0.13776,-3.18944 -0.86889,-5.14972 -2.1934,-5.88086c-0.46622,-0.23312 -1.02252,-0.34967 -1.66889,-0.34967c-0.63577,0 -1.52584,0.45564 -2.67023,1.3669c-1.53645,1.23975 -2.88214,1.86491 -4.03713,1.87552c-1.14438,0.0106 -1.94969,-0.29139 -2.41592,-0.90597c-0.46622,-0.62517 -0.69935,-1.22915 -0.69935,-1.81194zM-114.62101,146.7877l-3.79872,-0.44504c-1.9073,0.02119 -3.47023,0.98544 -4.68879,2.89275c-0.41325,0.69935 -0.61987,1.75896 -0.61987,3.17884v12.42927c0,1.72718 0.75763,2.88214 2.27287,3.46494c0.02119,0.02119 0.43975,0.14305 1.25564,0.36557c0.8159,0.22252 1.25564,0.34438 1.31922,0.36557v1.25564h-13.23987v-1.25564c0.07418,-0.04239 0.30728,-0.11126 0.69935,-0.20662c1.68479,-0.40265 2.75499,-1.02252 3.21063,-1.85962c0.23312,-0.46622 0.36557,-0.97484 0.39736,-1.52584v-17.18164c0,-1.1232 -0.59338,-1.80134 -1.78015,-2.03446c-0.34967,-0.07418 -1.1073,-0.13245 -2.27287,-0.17484l-0.17484,-1.22385l8.58287,-3.27421l0.07947,5.51529l1.22385,-1.28743c2.62784,-2.44771 5.19741,-3.67156 7.70869,-3.67156c1.49406,0 2.25168,0.72053 2.27287,2.16161c0,1.16557 -0.47683,1.94439 -1.43048,2.33645c-0.32849,0.11655 -0.66756,0.17484 -1.01723,0.17484zM-98.27737,141.44725c4.47156,0 7.27955,1.74836 8.42393,5.24509c0.50861,1.57882 0.64637,3.12587 0.41325,4.64111h-16.72071c-0.30728,1.67418 -0.46093,3.23182 -0.46093,4.6729c0,4.9166 1.46756,8.27028 4.4027,10.06103c1.55763,0.95365 3.43315,1.43048 5.62655,1.43048c2.27816,0 4.57224,-0.8371 6.88219,-2.51128l1.00134,1.04902l-0.96955,1.14438c-2.65963,2.77619 -5.80139,4.17488 -9.42526,4.19607c-2.17221,0 -4.17488,-0.65166 -6.00801,-1.95499c-3.70864,-2.62784 -5.56297,-6.6067 -5.56297,-11.93655c0,-5.63715 1.57353,-9.91269 4.72058,-12.82662c2.37353,-2.06625 4.9325,-3.13645 7.6769,-3.21063zM-105.81122,149.06057h11.87297c0,-1.84373 -0.41854,-3.21063 -1.25564,-4.10071c-0.8371,-0.90068 -1.9126,-1.35101 -3.22652,-1.35101c-2.02386,0 -3.67685,0.59869 -4.95899,1.79605c-1.27154,1.20796 -2.08214,2.42652 -2.43181,3.65567zM-78.0576,148.04334c-1.3669,2.42652 -2.05035,5.27688 -2.05035,8.55108c0,3.26361 0.89537,5.92325 2.68612,7.97889c1.79075,2.04506 4.07421,3.07287 6.8504,3.08348c2.76559,0.0106 5.30337,-0.57748 7.61333,-1.76426l1.11259,1.22385c-1.1232,1.0702 -1.97617,1.80134 -2.55897,2.1934c-2.08743,1.39869 -4.48217,2.11393 -7.18418,2.14572c-5.28748,0 -9.00141,-2.25168 -11.14184,-6.75504c-1.14438,-2.37353 -1.71657,-5.02786 -1.71657,-7.963c0,-4.90602 1.48876,-8.76831 4.46627,-11.58688c2.54307,-2.39473 5.48879,-3.59209 8.83718,-3.59209c3.40136,0 6.70736,1.13909 9.91799,3.41725c0.40265,0.25431 0.45033,0.88478 0.14305,1.89141c-0.2967,0.99604 -0.92186,1.69008 -1.87552,2.08214c-0.73113,0 -1.47287,-0.5404 -2.22519,-1.62121c-0.75232,-1.08081 -1.18677,-1.67949 -1.30332,-1.79605c-1.14438,-1.26094 -2.63844,-1.90201 -4.48217,-1.9232c-3.0199,0 -5.38284,1.47816 -7.08882,4.43448zM-48.61023,141.73334v21.26645c0,2.14043 0.14834,3.52851 0.44504,4.16428c0.30728,0.64637 1.02252,1.0861 2.14572,1.31922l2.05035,0.38146v1.43048h-13.23987v-1.46227l2.41592,-0.52451c0.85829,-0.19073 1.3934,-0.46093 1.60531,-0.8106c0.19073,-0.39206 0.2861,-1.23975 0.2861,-2.54307v-15.71937c0,-1.61061 -0.07418,-2.59076 -0.22252,-2.94043c-0.31788,-0.80531 -1.62121,-1.20796 -3.90997,-1.20796l-0.17484,-1.19207zM-54.58645,128.08022c0,-0.8159 0.27549,-1.50995 0.8265,-2.08214c0.5404,-0.57219 1.21856,-0.85829 2.03446,-0.85829c0.79471,0 1.47816,0.2861 2.05035,0.85829c0.57219,0.57219 0.85829,1.26624 0.85829,2.08214c0,0.78411 -0.2861,1.45167 -0.85829,2.00267c-0.57219,0.5404 -1.25564,0.8106 -2.05035,0.8106c-0.8159,0 -1.49406,-0.2702 -2.03446,-0.8106c-0.551,-0.551 -0.8265,-1.21856 -0.8265,-2.00267zM-22.79826,143.54528l-0.17484,5.40403h-1.82783c-0.13776,-2.39473 -0.85829,-3.98945 -2.16161,-4.78416c-0.78411,-0.45564 -1.77486,-0.68345 -2.97222,-0.68345c-1.27154,0 -2.24108,0.39736 -2.90864,1.19207c-0.66756,0.80531 -1.00134,1.83844 -1.00134,3.09937c0.03179,1.46227 0.88478,2.89275 2.55897,4.29144l4.60932,4.02123c1.9073,1.69539 3.14705,3.10997 3.71924,4.24375c0.57219,1.1232 0.85829,2.24638 0.85829,3.36957c0,2.70202 -1.11789,4.77355 -3.35368,6.21463c-1.61061,1.02783 -3.63977,1.52584 -6.08748,1.49406c-2.41592,0 -4.81065,-0.61458 -7.18418,-1.84373l-0.42914,-5.51529h1.71657c0.46622,2.00267 1.0861,3.39076 1.85962,4.16428c0.76292,0.78411 2.06625,1.17617 3.90997,1.17617c1.79075,0 3.17355,-0.51391 4.14839,-1.54174c0.97484,-1.01723 1.45167,-2.08743 1.43048,-3.21063c0,-1.55763 -1.04902,-3.25831 -3.14705,-5.10204l-4.60932,-3.94176c-2.78678,-2.37353 -4.19078,-4.6464 -4.21196,-6.81861c0,-2.55367 0.86358,-4.3974 2.59076,-5.53118c1.73776,-1.1232 3.73514,-1.68479 5.99212,-1.68479c2.35234,0 4.57753,0.66226 6.67557,1.98678zM-7.78432,141.73334v21.26645c0,2.14043 0.14834,3.52851 0.44504,4.16428c0.30728,0.64637 1.02252,1.0861 2.14572,1.31922l2.05035,0.38146v1.43048h-13.23987v-1.46227l2.41592,-0.52451c0.85829,-0.19073 1.3934,-0.46093 1.60531,-0.8106c0.19073,-0.39206 0.2861,-1.23975 0.2861,-2.54307v-15.71937c0,-1.61061 -0.07418,-2.59076 -0.22252,-2.94043c-0.31788,-0.80531 -1.62121,-1.20796 -3.90997,-1.20796l-0.17484,-1.19207zM-13.76054,128.08022c0,-0.8159 0.27549,-1.50995 0.8265,-2.08214c0.5404,-0.57219 1.21856,-0.85829 2.03446,-0.85829c0.79471,0 1.47816,0.2861 2.05035,0.85829c0.57219,0.57219 0.85829,1.26624 0.85829,2.08214c0,0.78411 -0.2861,1.45167 -0.85829,2.00267c-0.57219,0.5404 -1.25564,0.8106 -2.05035,0.8106c-0.8159,0 -1.49406,-0.2702 -2.03446,-0.8106c-0.551,-0.551 -0.8265,-1.21856 -0.8265,-2.00267zM1.11621,156.91231c0,-4.22786 1.21325,-7.81466 3.63977,-10.76038c2.41592,-2.94572 5.36164,-4.41859 8.83718,-4.41859c3.50733,0 6.5802,1.37219 9.21864,4.1166c2.62784,2.7444 3.94176,6.20403 3.94176,10.37892c0,4.16428 -1.13909,7.62922 -3.41725,10.39481c-2.63844,3.18944 -5.66894,4.78416 -9.09149,4.78416c-3.65567,0.03179 -6.74975,-1.33511 -9.28222,-4.10071c-2.54307,-2.75499 -3.82521,-6.21993 -3.8464,-10.39481zM13.06866,144.33999c-2.46889,0 -4.36561,1.11789 -5.69013,3.35368c-1.33511,2.23579 -2.00267,5.02257 -2.00267,8.36035c0,3.306 0.84769,6.25702 2.54307,8.85307c1.68479,2.59605 3.90997,3.90468 6.67557,3.92587c2.58546,0 4.52456,-1.13909 5.81728,-3.41725c1.29272,-2.26758 1.93909,-4.93781 1.93909,-8.01068c0,-3.28481 -0.78942,-6.27292 -2.36824,-8.96433c-1.58942,-2.70202 -3.89408,-4.06892 -6.91398,-4.10071zM48.64437,144.68967c-3.32718,0 -6.24642,0.88478 -8.75771,2.65433v15.65579c0,2.14043 0.14834,3.52851 0.44504,4.16428c0.30728,0.64637 1.02252,1.0861 2.14572,1.31922l2.05035,0.38146v1.43048h-13.23987v-1.46227l2.41592,-0.52451c0.85829,-0.19073 1.3934,-0.46093 1.60531,-0.8106c0.19073,-0.39206 0.2861,-1.23975 0.2861,-2.54307v-15.71937c0,-1.67418 -0.15365,-2.7338 -0.46093,-3.17884c-0.56159,-0.62517 -1.78544,-0.94836 -3.67156,-0.96955l-0.17484,-1.19207l8.59877,-2.16161v3.06758c3.95236,-2.16161 7.33783,-3.24242 10.1564,-3.24242c3.53912,0 5.92854,1.57882 7.16829,4.73647c0.60398,1.53645 0.90597,3.41196 0.90597,5.62655v11.14184c0,2.14043 0.15894,3.53381 0.47683,4.18018c0.30728,0.63577 0.99604,1.05962 2.06625,1.27154l2.06625,0.41325v1.3669h-13.20809v-1.43048l2.38413,-0.49272c0.87947,-0.18013 1.41458,-0.46093 1.60531,-0.84239c0.18013,-0.39206 0.2702,-1.23975 0.2702,-2.54307v-11.93655c-0.04239,-5.52058 -1.75366,-8.30738 -5.13383,-8.36035zM67.89517,167.6409c0,-0.93247 0.30728,-1.71128 0.92186,-2.33645c0.61458,-0.63577 1.3775,-0.95365 2.28877,-0.95365c0.91126,0 1.68479,0.31788 2.32055,0.95365c0.64637,0.62517 0.96955,1.40398 0.96955,2.33645c0,0.89008 -0.32318,1.6424 -0.96955,2.25698c-0.63577,0.61458 -1.40929,0.92186 -2.32055,0.92186c-0.91126,0 -1.67418,-0.30728 -2.28877,-0.92186c-0.61458,-0.61458 -0.92186,-1.3669 -0.92186,-2.25698zM77.88259,170.29523v0zM92.45025,131.24317c0,-1.653 1.17617,-2.4901 3.52851,-2.51128h22.83998c3.13645,0 5.82257,0.85299 8.05836,2.55897c2.23579,1.69539 3.34308,4.30204 3.32189,7.81995c-0.04239,7.52325 -3.98945,11.28489 -11.84118,11.28489c-3.32718,-0.09537 -5.03846,-0.93776 -5.13383,-2.52718c0.07418,-1.76955 1.06491,-2.66493 2.97222,-2.68612c0.99604,0 1.77486,0.39736 2.33645,1.19207c0.56159,0.79471 0.92186,1.26094 1.08081,1.39869c0.34967,0.25431 0.76821,0.38146 1.25564,0.38146c2.83977,0 4.25965,-2.82917 4.25965,-8.48751c0,-3.09408 -1.0702,-5.47821 -3.21063,-7.15239c-1.34571,-1.04902 -2.79738,-1.57353 -4.35501,-1.57353h-6.70736v34.07718c0,1.51524 0.12715,2.42121 0.38146,2.71791c0.25431,0.2861 0.75232,0.49801 1.49406,0.63577l2.38413,0.49272v1.43048h-13.58955v-1.3669l2.01856,-0.41325c1.23975,-0.25431 1.98148,-0.73113 2.22519,-1.43048c0.24371,-0.69935 0.36557,-2.03975 0.36557,-4.02123v-26.11418c-0.13776,-3.18944 -0.86889,-5.14972 -2.1934,-5.88086c-0.46622,-0.23312 -1.02252,-0.34967 -1.66889,-0.34967c-0.63577,0 -1.52584,0.45564 -2.67023,1.3669c-1.53645,1.23975 -2.88214,1.86491 -4.03713,1.87552c-1.14438,0.0106 -1.94969,-0.29139 -2.41592,-0.90597c-0.46622,-0.62517 -0.69935,-1.22915 -0.69935,-1.81194zM143.50006,141.44725c4.47156,0 7.27955,1.74836 8.42393,5.24509c0.50861,1.57882 0.64637,3.12587 0.41325,4.64111h-16.72071c-0.30728,1.67418 -0.46093,3.23182 -0.46093,4.6729c0,4.9166 1.46756,8.27028 4.4027,10.06103c1.55763,0.95365 3.43315,1.43048 5.62655,1.43048c2.27816,0 4.57224,-0.8371 6.88219,-2.51128l1.00134,1.04902l-0.96955,1.14438c-2.65963,2.77619 -5.80139,4.17488 -9.42526,4.19607c-2.17221,0 -4.17488,-0.65166 -6.00801,-1.95499c-3.70864,-2.62784 -5.56297,-6.6067 -5.56297,-11.93655c0,-5.63715 1.57353,-9.91269 4.72058,-12.82662c2.37353,-2.06625 4.9325,-3.13645 7.6769,-3.21063zM135.96621,149.06057h11.87297c0,-1.84373 -0.41854,-3.21063 -1.25564,-4.10071c-0.8371,-0.90068 -1.9126,-1.35101 -3.22652,-1.35101c-2.02386,0 -3.67685,0.59869 -4.95899,1.79605c-1.27154,1.20796 -2.08214,2.42652 -2.43181,3.65567zM175.38616,146.7877l-3.79872,-0.44504c-1.9073,0.02119 -3.47023,0.98544 -4.68879,2.89275c-0.41325,0.69935 -0.61987,1.75896 -0.61987,3.17884v12.42927c0,1.72718 0.75763,2.88214 2.27287,3.46494c0.02119,0.02119 0.43975,0.14305 1.25564,0.36557c0.8159,0.22252 1.25564,0.34438 1.31922,0.36557v1.25564h-13.23987v-1.25564c0.07418,-0.04239 0.30728,-0.11126 0.69935,-0.20662c1.68479,-0.40265 2.75499,-1.02252 3.21063,-1.85962c0.23312,-0.46622 0.36557,-0.97484 0.39736,-1.52584v-17.18164c0,-1.1232 -0.59338,-1.80134 -1.78015,-2.03446c-0.34967,-0.07418 -1.1073,-0.13245 -2.27287,-0.17484l-0.17484,-1.22385l8.58287,-3.27421l0.07947,5.51529l1.22385,-1.28743c2.62784,-2.44771 5.19741,-3.67156 7.70869,-3.67156c1.49406,0 2.25168,0.72053 2.27287,2.16161c0,1.16557 -0.47683,1.94439 -1.43048,2.33645c-0.32849,0.11655 -0.66756,0.17484 -1.01723,0.17484zM180.03169,144.83271v-1.70068l4.25965,-0.92186v-6.42126c0.05298,-9.08088 3.52322,-13.63194 10.41071,-13.65312c1.9073,0 3.65567,0.30199 5.24509,0.90597c1.53645,0.65696 2.30995,1.53645 2.32055,2.63844c0.0106,1.10199 -0.40265,1.81723 -1.23975,2.14572c-0.2861,0.09537 -0.5669,0.15365 -0.84239,0.17484c-1.02783,-0.02119 -2.05035,-0.68874 -3.06758,-2.00267c-1.02783,-1.31393 -2.05565,-1.97088 -3.08348,-1.97088c-1.83313,0 -3.22123,0.61987 -4.16428,1.85962c-0.94305,1.25035 -1.41458,3.28481 -1.41458,6.10338v10.21997h7.4067v2.62254h-7.4067v17.43594c0,2.16161 0.18544,3.65037 0.5563,4.46627c0.44504,0.95365 1.94439,1.71128 4.49806,2.27287v1.28743h-13.4465v-1.28743c0.14834,-0.05298 0.62517,-0.18013 1.43048,-0.38146c1.84373,-0.46622 2.77619,-1.83313 2.79738,-4.10071v-19.69292zM198.29596,156.91231c0,-4.22786 1.21325,-7.81466 3.63977,-10.76038c2.41592,-2.94572 5.36164,-4.41859 8.83718,-4.41859c3.50733,0 6.5802,1.37219 9.21864,4.1166c2.62784,2.7444 3.94176,6.20403 3.94176,10.37892c0,4.16428 -1.13909,7.62922 -3.41725,10.39481c-2.63844,3.18944 -5.66894,4.78416 -9.09149,4.78416c-3.65567,0.03179 -6.74975,-1.33511 -9.28222,-4.10071c-2.54307,-2.75499 -3.82521,-6.21993 -3.8464,-10.39481zM210.2484,144.33999c-2.46889,0 -4.36561,1.11789 -5.69013,3.35368c-1.33511,2.23579 -2.00267,5.02257 -2.00267,8.36035c0,3.306 0.84769,6.25702 2.54307,8.85307c1.68479,2.59605 3.90997,3.90468 6.67557,3.92587c2.58546,0 4.52456,-1.13909 5.81728,-3.41725c1.29272,-2.26758 1.93909,-4.93781 1.93909,-8.01068c0,-3.28481 -0.78942,-6.27292 -2.36824,-8.96433c-1.58942,-2.70202 -3.89408,-4.06892 -6.91398,-4.10071zM245.96715,146.7877l-3.79872,-0.44504c-1.9073,0.02119 -3.47023,0.98544 -4.68879,2.89275c-0.41325,0.69935 -0.61987,1.75896 -0.61987,3.17884v12.42927c0,1.72718 0.75763,2.88214 2.27287,3.46494c0.02119,0.02119 0.43975,0.14305 1.25564,0.36557c0.8159,0.22252 1.25564,0.34438 1.31922,0.36557v1.25564h-13.23987v-1.25564c0.07418,-0.04239 0.30728,-0.11126 0.69935,-0.20662c1.68479,-0.40265 2.75499,-1.02252 3.21063,-1.85962c0.23312,-0.46622 0.36557,-0.97484 0.39736,-1.52584v-17.18164c0,-1.1232 -0.59338,-1.80134 -1.78015,-2.03446c-0.34967,-0.07418 -1.1073,-0.13245 -2.27287,-0.17484l-0.17484,-1.22385l8.58287,-3.27421l0.07947,5.51529l1.22385,-1.28743c2.62784,-2.44771 5.19741,-3.67156 7.70869,-3.67156c1.49406,0 2.25168,0.72053 2.27287,2.16161c0,1.16557 -0.47683,1.94439 -1.43048,2.33645c-0.32849,0.11655 -0.66756,0.17484 -1.01723,0.17484zM267.8261,144.68967c-3.32718,0 -6.24642,0.88478 -8.75771,2.65433v15.65579c0,2.14043 0.14834,3.52851 0.44504,4.16428c0.30728,0.64637 1.02252,1.0861 2.14572,1.31922l2.05035,0.38146v1.43048h-13.23987v-1.46227l2.41592,-0.52451c0.85829,-0.19073 1.3934,-0.46093 1.60531,-0.8106c0.19073,-0.39206 0.2861,-1.23975 0.2861,-2.54307v-15.71937c0,-1.63181 -0.16423,-2.7232 -0.49272,-3.27421c-0.34967,-0.58279 -1.56293,-0.87418 -3.63977,-0.87418l-0.17484,-1.19207l8.59877,-2.16161v3.06758c3.95236,-2.16161 7.42789,-3.23713 10.4266,-3.22652c2.98811,0.0106 5.16032,1.30862 6.51662,3.89408c4.43978,-2.60665 8.33386,-3.90997 11.68224,-3.90997c3.33778,0 5.62126,1.57882 6.8504,4.73647c0.60398,1.53645 0.90597,3.41196 0.90597,5.62655v11.14184c0,2.14043 0.15894,3.53381 0.47683,4.18018c0.31788,0.63577 1.01194,1.05962 2.08214,1.27154l2.06625,0.41325v1.3669h-13.20809v-1.43048l2.36824,-0.49272c0.89008,-0.18013 1.42519,-0.46093 1.60531,-0.84239c0.19073,-0.39206 0.2861,-1.23975 0.2861,-2.54307v-11.93655c-0.04239,-5.52058 -1.75366,-8.30738 -5.13383,-8.36035c-3.32718,0 -6.40007,0.92186 -9.21864,2.76559c0.34967,1.28214 0.52451,2.77088 0.52451,4.46627v11.14184c0,2.14043 0.15894,3.53381 0.47683,4.18018c0.30728,0.63577 0.99604,1.05962 2.06625,1.27154l2.06625,0.41325v1.3669h-13.20809v-1.43048l2.38413,-0.49272c0.87947,-0.18013 1.41458,-0.46093 1.60531,-0.84239c0.18013,-0.39206 0.2702,-1.23975 0.2702,-2.54307v-11.93655c-0.04239,-5.52058 -1.75366,-8.30738 -5.13383,-8.36035zM329.95904,167.32302c-0.04239,0.11655 -0.21192,0.39736 -0.50861,0.84239c-0.2861,0.44504 -0.65696,0.91126 -1.11259,1.39869c-0.45564,0.48743 -0.97484,0.92186 -1.55763,1.30332c-0.58279,0.39206 -1.18677,0.58809 -1.81194,0.58809c-0.91126,0 -1.6424,-0.21192 -2.1934,-0.63577c-0.56159,-0.42385 -1.00663,-0.94836 -1.33511,-1.57353c-0.32849,-0.62517 -0.56159,-1.29272 -0.69935,-2.00267c-0.13776,-0.70995 -0.22781,-1.34571 -0.2702,-1.9073c-0.16954,0.13776 -0.47683,0.53511 -0.92186,1.19207c-0.43444,0.64637 -1.02783,1.33511 -1.78015,2.06625c-0.74173,0.74173 -1.653,1.40398 -2.7338,1.98678c-1.08081,0.58279 -2.33116,0.87418 -3.75103,0.87418c-0.69935,0 -1.43048,-0.09537 -2.1934,-0.2861c-0.75232,-0.19073 -1.43048,-0.50861 -2.03446,-0.95365c-0.60398,-0.45564 -1.1073,-1.07551 -1.50995,-1.85962c-0.39206,-0.78411 -0.58809,-1.75366 -0.58809,-2.90864c0,-1.653 0.5457,-3.0305 1.6371,-4.13249c1.10199,-1.09141 2.4636,-1.94969 4.08481,-2.57486c1.63181,-0.63577 3.13116,-1.0967 4.49806,-1.3828c1.3563,-0.2967 2.97751,-0.63048 4.86363,-1.00134v-5.83317c0,-0.50861 -0.01589,-1.15498 -0.04768,-1.93909c-0.03179,-0.77352 -0.16954,-1.52584 -0.41325,-2.25698c-0.25431,-0.74173 -0.65166,-1.37219 -1.19207,-1.89141c-0.551,-0.5298 -1.33511,-0.79471 -2.35234,-0.79471c-1.26094,0 -2.29406,0.24901 -3.09937,0.74703c-0.80531,0.48743 -1.3934,0.92716 -1.76426,1.31922c-0.37086,0.39206 -0.88478,0.97484 -1.54174,1.74836c-0.78411,0.09537 -1.40398,0.07947 -1.85962,-0.04768c-0.45564,-0.12715 -0.8265,-0.32849 -1.11259,-0.60398c-0.2967,-0.26491 -0.44504,-0.63048 -0.44504,-1.0967c0,-0.67816 0.51391,-1.31922 1.54174,-1.9232c1.01723,-0.60398 2.34705,-1.14438 3.98945,-1.62121c1.6424,-0.47683 3.20003,-0.71524 4.6729,-0.71524c1.32451,0 2.44242,0.19073 3.35368,0.57219c0.90068,0.39206 1.6424,0.91657 2.22519,1.57353c0.58279,0.66756 1.02783,1.43577 1.33511,2.30466c0.2967,0.87947 0.50861,1.80665 0.63577,2.78149c0.12715,0.97484 0.20133,1.97617 0.22252,3.00401c0.0106,1.02783 0.01589,2.01856 0.01589,2.97222c0,1.76955 -0.0265,3.49143 -0.07947,5.16562c-0.04239,1.67418 -0.03179,3.16824 0.03179,4.48217c0.07418,1.31393 0.2596,2.37353 0.5563,3.17884c0.2861,0.80531 0.76821,1.20796 1.44637,1.20796c0.85829,0 1.73247,-0.78942 2.62254,-2.36824zM320.04105,158.66067c-1.88612,0.2861 -3.49673,0.60398 -4.83184,0.95365c-1.33511,0.34967 -2.39473,0.78942 -3.17884,1.31922c-0.78411,0.5404 -1.3775,1.13909 -1.78015,1.79605c-0.41325,0.66756 -0.61987,1.47816 -0.61987,2.43181c0,2.33116 1.02783,3.49673 3.08348,3.49673c0.74173,0 1.50995,-0.2702 2.30466,-0.8106c0.78411,-0.5298 1.51524,-1.17617 2.1934,-1.93909c0.67816,-0.75232 1.27154,-1.53645 1.78015,-2.35234c0.51922,-0.8159 0.86889,-1.49406 1.04902,-2.03446zM350.49071,144.68967c-3.32718,0 -6.24642,0.88478 -8.75771,2.65433v15.65579c0,2.14043 0.14834,3.52851 0.44504,4.16428c0.30728,0.64637 1.02252,1.0861 2.14572,1.31922l2.05035,0.38146v1.43048h-13.23987v-1.46227l2.41592,-0.52451c0.85829,-0.19073 1.3934,-0.46093 1.60531,-0.8106c0.19073,-0.39206 0.2861,-1.23975 0.2861,-2.54307v-15.71937c0,-1.67418 -0.15365,-2.7338 -0.46093,-3.17884c-0.56159,-0.62517 -1.78544,-0.94836 -3.67156,-0.96955l-0.17484,-1.19207l8.59877,-2.16161v3.06758c3.95236,-2.16161 7.33783,-3.24242 10.1564,-3.24242c3.53912,0 5.92854,1.57882 7.16829,4.73647c0.60398,1.53645 0.90597,3.41196 0.90597,5.62655v11.14184c0,2.14043 0.15894,3.53381 0.47683,4.18018c0.30728,0.63577 0.99604,1.05962 2.06625,1.27154l2.06625,0.41325v1.3669h-13.20809v-1.43048l2.38413,-0.49272c0.87947,-0.18013 1.41458,-0.46093 1.60531,-0.84239c0.18013,-0.39206 0.2702,-1.23975 0.2702,-2.54307v-11.93655c-0.04239,-5.52058 -1.75366,-8.30738 -5.13383,-8.36035zM374.93893,148.04334c-1.3669,2.42652 -2.05035,5.27688 -2.05035,8.55108c0,3.26361 0.89537,5.92325 2.68612,7.97889c1.79075,2.04506 4.07421,3.07287 6.8504,3.08348c2.76559,0.0106 5.30337,-0.57748 7.61333,-1.76426l1.11259,1.22385c-1.1232,1.0702 -1.97617,1.80134 -2.55897,2.1934c-2.08743,1.39869 -4.48217,2.11393 -7.18418,2.14572c-5.28748,0 -9.00141,-2.25168 -11.14184,-6.75504c-1.14438,-2.37353 -1.71657,-5.02786 -1.71657,-7.963c0,-4.90602 1.48876,-8.76831 4.46627,-11.58688c2.54307,-2.39473 5.48879,-3.59209 8.83718,-3.59209c3.40136,0 6.70736,1.13909 9.91799,3.41725c0.40265,0.25431 0.45033,0.88478 0.14305,1.89141c-0.2967,0.99604 -0.92186,1.69008 -1.87552,2.08214c-0.73113,0 -1.47287,-0.5404 -2.22519,-1.62121c-0.75232,-1.08081 -1.18677,-1.67949 -1.30332,-1.79605c-1.14438,-1.26094 -2.63844,-1.90201 -4.48217,-1.9232c-3.0199,0 -5.38284,1.47816 -7.08882,4.43448zM407.62872,141.44725c4.47156,0 7.27955,1.74836 8.42393,5.24509c0.50861,1.57882 0.64637,3.12587 0.41325,4.64111h-16.72071c-0.30728,1.67418 -0.46093,3.23182 -0.46093,4.6729c0,4.9166 1.46756,8.27028 4.4027,10.06103c1.55763,0.95365 3.43315,1.43048 5.62655,1.43048c2.27816,0 4.57224,-0.8371 6.88219,-2.51128l1.00134,1.04902l-0.96955,1.14438c-2.65963,2.77619 -5.80139,4.17488 -9.42526,4.19607c-2.17221,0 -4.17488,-0.65166 -6.00801,-1.95499c-3.70864,-2.62784 -5.56297,-6.6067 -5.56297,-11.93655c0,-5.63715 1.57353,-9.91269 4.72058,-12.82662c2.37353,-2.06625 4.9325,-3.13645 7.6769,-3.21063zM400.09486,149.06057h11.87297c0,-1.84373 -0.41854,-3.21063 -1.25564,-4.10071c-0.8371,-0.90068 -1.9126,-1.35101 -3.22652,-1.35101c-2.02386,0 -3.67685,0.59869 -4.95899,1.79605c-1.27154,1.20796 -2.08214,2.42652 -2.43181,3.65567zM422.65106,167.6409c0,-0.93247 0.30728,-1.71128 0.92186,-2.33645c0.61458,-0.63577 1.3775,-0.95365 2.28877,-0.95365c0.91126,0 1.68479,0.31788 2.32055,0.95365c0.64637,0.62517 0.96955,1.40398 0.96955,2.33645c0,0.89008 -0.32318,1.6424 -0.96955,2.25698c-0.63577,0.61458 -1.40929,0.92186 -2.32055,0.92186c-0.91126,0 -1.67418,-0.30728 -2.28877,-0.92186c-0.61458,-0.61458 -0.92186,-1.3669 -0.92186,-2.25698zM432.63851,170.29523v0zM464.73748,128.73188c2.32055,0 3.49673,0.8159 3.52851,2.44771c0,1.26094 -0.63048,2.10864 -1.89141,2.54307c-0.37086,0.11655 -0.74173,0.17484 -1.11259,0.17484c-1.18677,0 -2.34705,-0.48212 -3.48083,-1.44637c-1.1232,-0.96425 -1.84902,-1.50995 -2.17751,-1.6371c-0.32849,-0.12715 -0.61987,-0.19073 -0.87418,-0.19073c-1.9073,0 -1.95499,2.41063 -0.14305,7.23186l9.91799,26.81353l12.22265,-31.53411c0.46622,-1.16557 0.32318,-1.9232 -0.42914,-2.27287c-0.76292,-0.34967 -2.21459,-0.52451 -4.35501,-0.52451v-1.60531h13.41471l0.03179,1.60531c-2.37353,0.09537 -3.94706,0.61987 -4.72058,1.57353c-0.27549,0.34967 -0.551,0.89537 -0.8265,1.6371l-14.8134,36.81098h-3.24242l-12.62,-32.32882c-1.25035,-3.21063 -2.24108,-5.25038 -2.97222,-6.11927c-0.74173,-0.85829 -1.84373,-1.34571 -3.306,-1.46227c-0.48743,-0.04239 -1.1073,-0.06358 -1.85962,-0.06358v-1.653zM499.41395,141.73334v21.26645c0,2.14043 0.14834,3.52851 0.44504,4.16428c0.30728,0.64637 1.02252,1.0861 2.14572,1.31922l2.05035,0.38146v1.43048h-13.23987v-1.46227l2.41592,-0.52451c0.85829,-0.19073 1.3934,-0.46093 1.60531,-0.8106c0.19073,-0.39206 0.2861,-1.23975 0.2861,-2.54307v-15.71937c0,-1.61061 -0.07418,-2.59076 -0.22252,-2.94043c-0.31788,-0.80531 -1.62121,-1.20796 -3.90997,-1.20796l-0.17484,-1.19207zM493.43773,128.08022c0,-0.8159 0.27549,-1.50995 0.8265,-2.08214c0.5404,-0.57219 1.21856,-0.85829 2.03446,-0.85829c0.79471,0 1.47816,0.2861 2.05035,0.85829c0.57219,0.57219 0.85829,1.26624 0.85829,2.08214c0,0.78411 -0.2861,1.45167 -0.85829,2.00267c-0.57219,0.5404 -1.25564,0.8106 -2.05035,0.8106c-0.8159,0 -1.49406,-0.2702 -2.03446,-0.8106c-0.551,-0.551 -0.8265,-1.21856 -0.8265,-2.00267zM514.70395,148.04334c-1.3669,2.42652 -2.05035,5.27688 -2.05035,8.55108c0,3.26361 0.89537,5.92325 2.68612,7.97889c1.79075,2.04506 4.07421,3.07287 6.8504,3.08348c2.76559,0.0106 5.30337,-0.57748 7.61333,-1.76426l1.11259,1.22385c-1.1232,1.0702 -1.97617,1.80134 -2.55897,2.1934c-2.08743,1.39869 -4.48217,2.11393 -7.18418,2.14572c-5.28748,0 -9.00141,-2.25168 -11.14184,-6.75504c-1.14438,-2.37353 -1.71657,-5.02786 -1.71657,-7.963c0,-4.90602 1.48876,-8.76831 4.46627,-11.58688c2.54307,-2.39473 5.48879,-3.59209 8.83718,-3.59209c3.40136,0 6.70736,1.13909 9.91799,3.41725c0.40265,0.25431 0.45033,0.88478 0.14305,1.89141c-0.2967,0.99604 -0.92186,1.69008 -1.87552,2.08214c-0.73113,0 -1.47287,-0.5404 -2.22519,-1.62121c-0.75232,-1.08081 -1.18677,-1.67949 -1.30332,-1.79605c-1.14438,-1.26094 -2.63844,-1.90201 -4.48217,-1.9232c-3.0199,0 -5.38284,1.47816 -7.08882,4.43448zM549.28515,144.91219h-7.26365v13.89154c0,2.00267 0.02119,3.88348 0.06358,5.64244c0.05298,1.75896 0.32849,2.95632 0.8265,3.59209c0.49801,0.64637 1.22385,0.96955 2.17751,0.96955c1.70597,0 3.52322,-0.46622 5.45171,-1.39869v1.87552c-2.46889,1.31393 -4.57753,1.97088 -6.32589,1.97088c-1.653,0 -2.92453,-0.27549 -3.81461,-0.8265c-0.90068,-0.551 -1.55234,-1.26094 -1.95499,-2.12982c-0.41325,-0.87947 -0.65166,-1.86491 -0.71524,-2.95632c-0.07418,-1.09141 -0.11126,-2.1828 -0.11126,-3.27421v-14.98824c0,-0.50861 -0.00529,-0.90597 -0.01589,-1.19207c-0.0106,-0.27549 -0.05828,-0.51922 -0.14305,-0.73113c-0.08476,-0.21192 -0.27549,-0.33907 -0.57219,-0.38146c-0.30728,-0.04239 -0.76292,-0.06358 -1.3669,-0.06358h-1.95499v-1.653c2.23579,-0.95365 3.77222,-1.87022 4.60932,-2.7497c0.8371,-0.89008 1.73247,-2.42652 2.68612,-4.60932h1.16028v6.38947h7.26365zM553.71541,156.91231c0,-4.22786 1.21325,-7.81466 3.63977,-10.76038c2.41592,-2.94572 5.36164,-4.41859 8.83718,-4.41859c3.50733,0 6.5802,1.37219 9.21864,4.1166c2.62784,2.7444 3.94176,6.20403 3.94176,10.37892c0,4.16428 -1.13909,7.62922 -3.41725,10.39481c-2.63844,3.18944 -5.66894,4.78416 -9.09149,4.78416c-3.65567,0.03179 -6.74975,-1.33511 -9.28222,-4.10071c-2.54307,-2.75499 -3.82521,-6.21993 -3.8464,-10.39481zM565.66785,144.33999c-2.46889,0 -4.36561,1.11789 -5.69013,3.35368c-1.33511,2.23579 -2.00267,5.02257 -2.00267,8.36035c0,3.306 0.84769,6.25702 2.54307,8.85307c1.68479,2.59605 3.90997,3.90468 6.67557,3.92587c2.58546,0 4.52456,-1.13909 5.81728,-3.41725c1.29272,-2.26758 1.93909,-4.93781 1.93909,-8.01068c0,-3.28481 -0.78942,-6.27292 -2.36824,-8.96433c-1.58942,-2.70202 -3.89408,-4.06892 -6.91398,-4.10071zM601.38662,146.7877l-3.79872,-0.44504c-1.9073,0.02119 -3.47023,0.98544 -4.68879,2.89275c-0.41325,0.69935 -0.61987,1.75896 -0.61987,3.17884v12.42927c0,1.72718 0.75763,2.88214 2.27287,3.46494c0.02119,0.02119 0.43975,0.14305 1.25564,0.36557c0.8159,0.22252 1.25564,0.34438 1.31922,0.36557v1.25564h-13.23987v-1.25564c0.07418,-0.04239 0.30728,-0.11126 0.69935,-0.20662c1.68479,-0.40265 2.75499,-1.02252 3.21063,-1.85962c0.23312,-0.46622 0.36557,-0.97484 0.39736,-1.52584v-17.18164c0,-1.1232 -0.59338,-1.80134 -1.78015,-2.03446c-0.34967,-0.07418 -1.1073,-0.13245 -2.27287,-0.17484l-0.17484,-1.22385l8.58287,-3.27421l0.07947,5.51529l1.22385,-1.28743c2.62784,-2.44771 5.19741,-3.67156 7.70869,-3.67156c1.49406,0 2.25168,0.72053 2.27287,2.16161c0,1.16557 -0.47683,1.94439 -1.43048,2.33645c-0.32849,0.11655 -0.66756,0.17484 -1.01723,0.17484zM603.28243,143.81549v-1.60531h11.96834v1.60531c-1.83313,0 -2.7391,0.63048 -2.71791,1.89141c0.02119,0.65696 0.24371,1.54174 0.66756,2.65433l6.24642,16.48229c1.46227,-3.42255 2.94043,-7.1471 4.43448,-11.17363l2.62254,-7.15239c0.48743,-1.39869 0.09007,-2.25168 -1.19207,-2.55897c-0.44504,-0.09537 -0.99073,-0.14305 -1.6371,-0.14305v-1.60531h10.58554v1.60531c-1.68479,0.05298 -2.85036,0.5457 -3.49673,1.47816c-0.2861,0.41325 -1.36161,3.04109 -3.22652,7.88353c-1.87552,4.84244 -4.6835,11.55509 -8.42393,20.13796c-3.74043,8.58287 -5.85436,13.31405 -6.34179,14.19353c-1.55763,2.81857 -3.35897,4.63582 -5.40403,5.45171c-1.14438,0.37086 -2.33116,0.5563 -3.5603,0.5563c-1.47287,0 -2.81857,-0.30199 -4.03713,-0.90597c-1.22915,-0.60398 -1.84902,-1.38809 -1.85962,-2.35234c-0.0106,-0.96425 0.21723,-1.62121 0.68345,-1.97088c0.46622,-0.34967 0.96955,-0.51391 1.50995,-0.49272c1.20796,0.02119 2.24638,0.64106 3.11526,1.85962c0.87947,1.22915 1.70068,1.85433 2.4636,1.87552c0.77352,0 1.62121,-0.5404 2.54307,-1.62121c0.91126,-1.08081 1.87022,-2.82388 2.87685,-5.22919l3.27421,-7.78816l2.62254,-6.70736l-8.05836,-20.77373c-0.79471,-2.04506 -1.54174,-3.48612 -2.24108,-4.32322c-0.69935,-0.84769 -1.83844,-1.27154 -3.41725,-1.27154zM515.75392,24.125c0,2.31369 -1.87563,4.18932 -4.18932,4.18932c-2.31369,0 -4.18932,-1.87563 -4.18932,-4.18932c0,-2.31369 1.87563,-4.18932 4.18932,-4.18932c2.31369,0 4.18932,1.87563 4.18932,4.18932zM498.99666,7.36774c0,2.31369 -1.87563,4.18932 -4.18932,4.18932c-2.31369,0 -4.18932,-1.87563 -4.18932,-4.18932c0,-2.31369 1.87563,-4.18932 4.18932,-4.18932c2.31369,0 4.18932,1.87563 4.18932,4.18932zM573.0437,37.0644c-1.54293,2.37781 -4.18347,3.81429 -7.01799,3.81787h-8.37863v16.75726c0,9.25478 -7.50248,16.75726 -16.75726,16.75726h-16.75726v16.75725h-67.02903v-46.39405c-10.66358,-9.50331 -16.76073,-23.10852 -16.75726,-37.39225c0,-27.75421 22.51756,-50.27177 50.27177,-50.27177h19.39915c17.71659,-0.00183 34.32575,8.61824 44.52195,23.10668c6.45154,9.16937 13.65193,36.55963 19.13208,48.89716c1.15154,2.59009 0.91543,5.58678 -0.6275,7.96459zM540.88982,15.74637c0,-2.31369 -1.87563,-4.18932 -4.18932,-4.18932h-3.17341c-7.46484,0 -11.20379,-9.02537 -5.92526,-14.3039l2.24652,-2.2439c1.63621,-1.63621 1.63621,-4.28905 0,-5.92526c-1.63621,-1.63621 -4.28905,-1.63621 -5.92526,0l-2.2439,2.24652c-5.27853,5.27853 -14.3039,1.53958 -14.3039,-5.92526v-3.17341c0,-2.31369 -1.87563,-4.18932 -4.18932,-4.18932c-2.31369,0 -4.18932,1.87563 -4.18932,4.18932v3.17341c0,7.46484 -9.02537,11.20379 -14.3039,5.92526l-2.2439,-2.24652c-1.63621,-1.63621 -4.28905,-1.63621 -5.92526,0c-1.63621,1.63621 -1.63621,4.28905 0,5.92526l2.24652,2.2439c5.27853,5.27853 1.53958,14.3039 -5.92526,14.3039h-3.17341c-2.31369,0 -4.18932,1.87563 -4.18932,4.18932c0,2.31369 1.87563,4.18932 4.18932,4.18932h3.17341c7.46484,0 11.20379,9.02537 5.92526,14.3039l-2.24652,2.2439c-1.63621,1.63621 -1.63621,4.28905 0,5.92526c1.63621,1.63621 4.28905,1.63621 5.92526,0l2.2439,-2.24652c5.27853,-5.27853 14.3039,-1.53958 14.3039,5.92526v3.17341c0,2.31369 1.87563,4.18932 4.18932,4.18932c2.31369,0 4.18932,-1.87563 4.18932,-4.18932v-3.17341c0,-7.46484 9.02537,-11.20379 14.3039,-5.92526l2.2439,2.24652c1.63621,1.63621 4.28905,1.63621 5.92526,0c1.63621,-1.63621 1.63621,-4.28905 0,-5.92526l-2.24652,-2.2439c-5.27853,-5.27853 -1.53958,-14.3039 5.92526,-14.3039h3.17341c2.31369,0 4.18932,-1.87563 4.18932,-4.18932z"/></g></svg>